<svg width="393" height="81" viewBox="0 0 393 81" fill="none" xmlns="http://www.w3.org/2000/svg">
<g clip-path="url(#clip0_37_66)">
<path d="M239.537 1C246.491 4.02186 253.731 6.05332 259.317 10.2739C270.584 18.7877 272.552 29.9684 267.191 45.3443C259.922 66.191 238.789 81.0741 217.468 80.126C208.158 79.712 200.009 76.2147 193.456 69.4783C191.841 67.8173 189.354 65.9016 192.357 63.276C194.921 61.0351 199.607 61.5124 201.686 63.7863C204.334 66.6824 206.948 69.8601 210.216 71.8865C216.977 76.0793 223.998 74.787 230.566 71.0069C245.006 62.6963 254.655 50.6695 257.608 34.0535C259.367 24.1559 255.775 15.9369 247.455 10.2186C239.017 4.41881 230.262 4.55177 221.245 9.6771C232.516 16.5426 232.009 16.3856 228.04 29.191C224.364 41.0523 221.918 53.2958 218.961 65.3786C218.529 67.1423 218.27 68.9482 217.927 70.757C210.244 68.2519 207.981 66.1708 209.171 58.7933C211.467 44.5646 214.796 30.5018 217.739 16.3791C218.07 14.7905 218.675 13.259 219.222 11.4744C207.563 16.6707 195.576 35.6883 195.881 48.1152C196.037 54.4175 184.775 69.5003 178.75 71.0591C171.307 72.9847 164.388 68.1901 163.91 60.5193C163.705 57.2271 163.965 53.8716 164.358 50.5859C164.747 47.3241 165.568 44.1139 166.241 40.674C156.176 43.2443 151.681 53.2152 152.459 70.2403C144.636 70.2646 141.987 68.2883 142.19 60.684C142.434 51.5689 143.667 42.4803 144.618 31.7159C149.306 34.0772 153.189 36.0329 157.268 38.0876C159.512 36.7949 162.218 34.724 165.271 33.5788C172.963 30.6937 179.397 36.0296 178.041 43.9826C177.259 48.5665 176.07 53.0836 175.364 57.6768C175.003 60.0257 175.301 62.476 175.301 65.5149C182.547 62.6546 186.038 57.721 188.556 52.019C188.973 51.0745 188.372 49.0325 187.537 48.2915C183.177 44.4223 183.104 39.8451 185.25 35.0957C193.434 16.9888 207.797 6.4578 226.887 1.3605C231.025 1 235.049 1 239.537 1Z" fill="#070707"/>
<path d="M394 51.625C392.098 55.231 390.095 58.4081 388.31 61.7026C381.296 74.6466 357.213 75.306 350.587 62.1698C347.236 66.8371 343.662 71.1632 337.425 71.4987C330.785 71.856 327.43 67.9504 325.831 61.8734C316.163 74.2134 306.931 74.9211 299.574 63.915C294.66 68.9326 289.462 72.9939 281.722 70.1782C273.983 67.3631 270.034 60.675 271.732 52.5309C274.564 38.9425 286.625 30.1323 298.816 32.7466C305.212 34.1182 308.163 37.9008 308.219 44.7516C308.222 45.1554 308.336 45.8108 308.587 45.9232C314.835 48.7088 312.552 53.7494 312.022 58.4021C311.785 60.4887 311.982 62.6248 311.982 65.943C326.709 58.7382 326.056 44.559 330.579 32.853C326.743 32.102 323.563 37.4261 319.73 32.1315C322.556 30.4848 325.11 28.3158 328.047 27.4506C332.102 26.2564 333.395 23.5867 333.906 19.9755C334.367 16.7131 334.811 13.4484 335.26 10.1984C343.991 11.1909 347.038 14.076 347.084 21.1349C352.503 21.1392 357.923 21.1392 363.312 21.1392C364.418 25.9974 364.02 26.5588 359.609 26.5409C344.735 26.4805 344.735 26.4805 340.552 40.6848C336.781 53.4905 335.99 59.2548 337.446 65.2812C344.014 63.5733 347.191 58.7645 349.048 52.9812C351.401 45.6511 354.303 38.5786 361.905 35.5852C366.354 33.8334 371.547 32.7765 376.256 33.1739C382.56 33.7059 384.65 39.094 382.166 44.998C378.558 53.5742 370.947 56.7543 363.033 59.5618C364.623 65.0019 368.589 67.2837 373.967 65.6307C381.438 63.3344 385.583 57.6876 388.312 50.7538C389.273 48.313 390.383 46.3556 393.647 48.8491C394 49.75 394 50.5 394 51.625ZM288.11 42.6623C286.465 47.754 283.925 52.7598 283.426 57.9614C282.92 63.2374 287.768 65.9543 291.653 63.0873C296.777 59.305 300.929 54.6657 301.103 47.5875C301.143 45.9422 302.549 44.3305 303.603 42.1237C300.245 35.9989 295.268 35.7286 288.11 42.6623ZM369.942 40.2549C365.211 44.0046 362.53 48.7968 361.962 55.2106C369.298 52.8093 374.679 48.9756 377.378 42.1144C377.746 41.177 377.833 39.6262 377.299 38.9782C376.772 38.3381 375.238 38.1807 374.244 38.3586C372.98 38.5847 371.814 39.3616 369.942 40.2549Z" fill="#090909"/>
<path d="M1 46.4669C3.0105 40.3108 4.71588 34.4901 7.09929 28.9617C11.2097 19.4274 17.5116 11.5839 26.6485 6.33529C33.555 2.36792 40.9532 1.13394 48.76 2.96884C54.6927 4.36324 57.7426 8.57668 56.9597 14.6812C56.6268 17.2769 55.8224 19.8742 54.8396 22.3125C52.3105 28.587 49.2599 29.6198 43.2653 26.9982C45.2497 22.4949 47.7172 18.1401 49.0811 13.4635C50.5618 8.38661 48.1299 5.81849 43.0563 7.27174C39.2271 8.36855 35.073 10.3768 32.4373 13.2428C20.6123 26.101 14.3278 41.3626 15.1745 59.045C15.4587 64.9817 17.1227 70.9653 23.0687 73.6834C29.2265 76.4984 35.1847 74.4204 40.3918 70.5909C48.069 64.9448 52.3157 56.977 55.1274 48.0748C58.986 35.8576 72.6909 28.5787 82.537 33.9523C88.6368 37.2812 95.1159 45.3342 94.2454 53.9241C93.4968 61.3115 88.7526 67.9728 81.6886 70.4232C74.8412 72.7984 64.9713 70.06 59.8011 64.306C58.7017 63.0825 57.7299 61.7444 56.6145 60.3533C50.1825 71.5942 42.0318 80.2516 28.138 81.6195C26.6111 82 25.2222 82 23.2936 81.6483C11.9072 78.9177 4.609 72.5383 1 62C1 56.9779 1 51.9558 1 46.4669ZM70.0095 42.6087C68.9111 47.3402 66.7703 52.1136 66.9587 56.7932C67.2407 63.7965 75.2385 67.1123 81.143 63.3977C86.6866 59.9101 90.1543 49.8504 84.7854 42.1679C83.6353 44.4908 82.4852 46.8138 80.7419 50.3349C79.2875 47.1277 77.691 45.2353 77.836 43.4874C77.9936 41.5876 79.7701 39.8222 80.9259 37.8529C76.673 37.179 73.386 39.1016 70.0095 42.6087Z" fill="#070707"/>
<path d="M129.552 36.3815C132.204 40.1514 135.484 43.3612 136.816 47.24C139.809 55.9564 135.361 65.5201 127.402 69.4878C119.533 73.411 108.116 70.5669 102.319 63.239C96.0868 55.3601 96.886 46.1109 104.147 38.6172C109.834 32.749 122.702 29.3453 129.552 36.3815ZM122.537 47.2083C119.803 43.4781 120.997 40.5497 125.125 38.1369C115.396 37.2676 109.145 44.909 110.004 55.6986C110.339 59.9094 112.425 62.9429 116.418 64.3758C120.242 65.7482 123.729 64.7582 126.458 61.8601C131.252 56.7695 132.536 50.8196 130.262 42.8409C128.296 44.7969 127.106 46.1986 125.682 47.2984C125.041 47.794 123.935 47.6879 122.537 47.2083Z" fill="#090909"/>
</g>
<defs>
<clipPath id="clip0_37_66">
<rect width="393" height="81" fill="white"/>
</clipPath>
</defs>
</svg>
